<svg width="230" height="230" viewBox="0 0 230 230" fill="none" xmlns="http://www.w3.org/2000/svg">
<g opacity="0.1">
<path d="M163.857 166.176C164.104 166.857 164.331 167.546 164.599 168.217C165.628 170.795 168.912 172.683 171.587 172.339C172.452 172.227 172.309 171.716 172.301 171.172C172.252 167.707 170.613 165.443 167.315 164.282C166.922 164.143 166.546 163.961 166.202 163.597C168.28 163.787 170.374 163.881 172.436 164.186C177.877 164.989 180.918 167.887 182.168 173.268C182.865 176.266 182.775 179.348 183.174 182.377C183.262 183.051 183.011 183.264 182.36 183.176C179.393 182.775 176.374 182.851 173.431 182.203C167.372 180.873 164.351 177.151 163.9 170.417C163.807 169.016 163.736 167.615 163.656 166.214C163.722 166.202 163.791 166.188 163.857 166.176Z" fill="#B39D81"/>
<path d="M166.812 65.9977C170.286 65.0212 171.881 62.6808 172.274 59.2895C172.417 58.0625 172.251 57.5009 170.789 57.6672C167.576 58.0332 165.21 59.3678 164.268 62.6514C164.153 63.0506 163.947 63.4244 163.593 63.7727C163.781 61.6965 163.904 59.6104 164.171 57.544C164.84 52.3328 167.83 49.1881 172.881 47.877C175.992 47.0688 179.203 47.2312 182.346 46.7674C182.994 46.6715 183.268 46.9514 183.18 47.5893C182.71 50.9747 182.88 54.4325 181.865 57.7592C180.471 62.3227 177.466 64.9723 172.775 65.7452C170.8 66.0701 168.816 66.1797 166.81 65.9996L166.812 65.9977Z" fill="#B39D81"/>
<path d="M65.8138 63.0526C64.9332 59.5321 62.536 58.0156 59.1741 57.6751C57.9883 57.5537 57.5264 57.7944 57.6595 59.1036C58.0039 62.4753 59.4696 64.9077 63.0703 65.8098C57.4658 67.6375 50.3271 64.0584 48.333 58.585C47.0297 55.0117 47.245 51.2252 46.7616 47.5365C46.6697 46.8379 47.0845 46.6872 47.6579 46.7713C50.74 47.2312 53.8905 47.057 56.9433 47.8437C62.2582 49.2135 65.1015 52.3249 65.8197 57.7749C66.0428 59.4636 66.1171 61.174 66.26 62.8745C66.1113 62.9332 65.9625 62.9939 65.8138 63.0526Z" fill="#B39D81"/>
<path d="M62.8609 164.032C59.3913 165.143 57.9041 167.607 57.6536 171.043C57.5695 172.186 57.9824 172.38 58.9999 172.295C62.4206 172.014 64.8843 170.501 65.9175 166.507C67.166 175.681 63.1505 181.248 54.8103 182.503C52.4561 182.857 50.0609 182.939 47.6892 183.178C46.9553 183.252 46.6618 183.025 46.7792 182.27C47.2254 179.37 47.0708 176.411 47.7264 173.522C49.0081 167.871 52.0432 164.998 57.8023 164.127C59.4618 163.877 61.1192 163.74 62.8648 164.032H62.8609Z" fill="#B39D81"/>
<path d="M183.293 135.698C184.186 135.645 184.497 136.271 184.976 136.582C187.082 137.948 190.829 137.794 192.821 136.308C193.494 135.805 193.048 135.504 192.813 135.121C190.868 131.945 188.954 131.113 184.422 131.475C189.538 126.626 197.154 126.706 202.06 131.622C204.285 133.853 205.745 136.639 207.643 139.105C208.077 139.668 208.085 140.07 207.369 140.365C203.936 141.782 200.782 143.852 197.015 144.48C193.205 145.116 190.021 144.083 187.346 141.34C185.733 139.686 184.534 137.755 183.293 135.696V135.698Z" fill="#B39D81"/>
<path d="M94.5604 183.528C91.8031 186.201 91.9049 189.16 93.4019 192.32C93.8422 193.252 94.1788 193.287 94.9948 192.712C97.9145 190.655 99.5348 188.097 98.1532 183.908C102.844 189.89 103.27 196.122 99.5876 200.666C98.7853 201.656 97.8636 202.594 96.8538 203.367C94.9146 204.854 92.8657 206.196 90.8775 207.619C90.3472 207.999 89.9206 208.177 89.5997 207.408C88.2827 204.255 86.41 201.343 85.6331 197.954C84.5705 193.31 85.8307 189.481 89.5449 186.516C91.0126 185.344 92.6055 184.332 94.1436 183.248C94.2825 183.342 94.4214 183.436 94.5623 183.53L94.5604 183.528Z" fill="#B39D81"/>
<path d="M135.633 183.242C137.559 184.418 139.481 185.598 141.144 187.146C144.238 190.025 145.242 193.528 144.381 197.635C143.641 201.159 141.69 204.171 140.336 207.435C140.087 208.036 139.723 208.106 139.209 207.709C136.698 205.77 133.872 204.271 131.577 202.024C127.841 198.369 126.865 194.156 128.853 189.318C129.561 187.596 130.426 185.937 131.303 184.07C131.708 184.96 131.336 185.524 131.271 186.107C130.98 188.745 133.087 192.195 135.473 193.077C136.254 193.365 136.277 192.792 136.477 192.404C138.138 189.197 138.015 186.189 135.434 183.473C135.498 183.395 135.565 183.317 135.631 183.238L135.633 183.242Z" fill="#B39D81"/>
<path d="M183.414 94.3959C184.43 92.4253 185.497 90.6465 186.888 89.0889C189.682 85.9598 193.089 84.725 197.267 85.5058C200.948 86.1946 204.067 88.2024 207.439 89.6133C208.059 89.8736 208.079 90.263 207.697 90.7581C205.793 93.2218 204.351 96.026 202.14 98.2686C198.273 102.192 194.236 103.075 189.105 101.014C187.698 100.449 186.354 99.7323 185.041 99.114C185.043 98.6423 185.262 98.523 185.514 98.5719C188.943 99.2235 191.038 97.341 192.845 94.8088C193.377 94.0632 193.115 93.8049 192.436 93.4684C189.26 91.895 186.242 91.7483 183.413 94.3979L183.414 94.3959Z" fill="#B39D81"/>
<path d="M98.2354 45.5249C99.5641 41.8225 97.9203 39.349 95.0985 37.306C94.2551 36.6955 93.8402 36.6544 93.3627 37.713C92.0555 40.6092 91.7601 43.3547 94.0985 45.9006C94.2492 46.063 94.4508 46.2568 94.1944 46.6364C92.0047 45.2431 89.7601 43.9379 87.9852 41.9771C85.3278 39.0398 84.7642 35.6309 85.6585 31.8757C86.4628 28.502 88.3238 25.5765 89.6329 22.4181C89.856 21.8799 90.1535 21.7762 90.6016 22.1284C93.1475 24.1323 96.0574 25.6352 98.3919 27.9345C102.12 31.6056 103.073 35.8403 101.077 40.6777C100.388 42.3469 99.5426 43.9516 98.7676 45.5856C98.5876 45.564 98.4095 45.5425 98.2295 45.5229L98.2354 45.5249Z" fill="#B39D81"/>
<path d="M46.4192 136.039C45.5112 137.631 44.5073 139.162 43.3234 140.565C40.3196 144.128 36.5565 145.375 32.0009 144.31C28.6253 143.522 25.7076 141.67 22.557 140.357C21.9954 140.125 21.7938 139.782 22.2087 139.238C24.3143 136.477 25.9209 133.338 28.5294 130.957C31.9794 127.808 35.8892 127.011 40.2354 128.706C42.0906 129.428 43.8674 130.35 45.7656 131.219C45.2392 131.739 44.8361 131.456 44.4662 131.393C41.4272 130.868 38.1846 132.628 36.9244 135.393C36.5154 136.291 37.2023 136.311 37.625 136.52C40.6151 137.993 43.4897 138.101 46.1217 135.72C46.2196 135.827 46.3174 135.933 46.4133 136.039H46.4192Z" fill="#B39D81"/>
<path d="M135.718 46.1315C138.052 43.5661 137.962 40.7756 136.627 37.7757C136.105 36.6015 135.68 36.7092 134.782 37.3588C131.937 39.4214 130.407 41.9595 131.592 45.6306C125.81 37.1279 126.962 31.4334 133.213 26.5001C135.082 25.0246 137.103 23.739 139.042 22.3515C139.547 21.9915 140.001 21.7195 140.33 22.512C141.782 25.9992 143.876 29.2163 144.502 33.0537C145.193 37.2884 143.727 40.6131 140.571 43.3175C139.175 44.5132 137.633 45.5093 136.033 46.4153C135.927 46.3214 135.821 46.2255 135.718 46.1315Z" fill="#B39D81"/>
<path d="M46.1335 94.2159C43.566 91.8892 40.7853 91.9616 37.7854 93.3216C36.6172 93.8519 36.7072 94.2824 37.3627 95.1748C39.2452 97.7422 41.5113 99.3175 44.8713 98.4917C45.0102 98.4564 45.1824 98.5543 45.3801 98.5993C39.9478 102.722 33.9421 103.206 29.6135 99.8732C27.3494 98.1316 25.6332 95.8988 24.1773 93.4742C23.465 92.2884 21.782 91.1866 22.1421 90.0301C22.4161 89.1495 24.3534 88.7914 25.5471 88.1946C27.7388 87.0987 29.9559 86.0929 32.3746 85.5684C36.8305 84.6056 40.4448 85.9715 43.343 89.4098C44.5288 90.8168 45.5229 92.3529 46.4348 93.9458C46.3331 94.0358 46.2333 94.1239 46.1315 94.2139L46.1335 94.2159Z" fill="#B39D81"/>
<path d="M140.101 158.22C139.958 156.517 139.758 154.823 139.852 153.101C139.974 150.883 139.06 149.201 136.729 148.214C143.04 148.171 146.606 151.674 146.539 157.656C146.518 159.609 146.275 161.558 146.214 163.511C146.155 165.39 146.202 167.272 146.202 169.3C145.298 168.713 144.353 168.092 143.4 167.48C141.492 166.253 139.457 165.274 137.41 164.308C131.131 161.339 129.614 156.834 132.902 150.081C132.483 153.33 134.06 154.907 136.424 156.075C137.668 156.69 138.758 157.617 139.919 158.404C140.003 158.441 140.087 158.48 140.171 158.517C140.148 158.417 140.124 158.32 140.101 158.22Z" fill="#B39D81"/>
<path d="M71.7901 140.115C73.2539 140.034 74.7196 139.858 76.1794 139.893C78.555 139.952 80.5393 139.379 81.6958 136.923C81.8544 142.709 78.3378 146.557 72.8273 146.51C68.8196 146.476 64.8177 145.928 60.2073 146.539C63.4029 142.741 64.7551 138.494 67.1503 134.839C69.2266 131.669 72.2187 130.569 75.9093 131.496C77.1344 131.806 78.3398 132.195 79.5961 132.743C76.6275 132.414 75.0777 134.035 73.8977 136.391C73.2754 137.633 72.3498 138.725 71.5612 139.886C71.5122 139.966 71.4614 140.044 71.4124 140.124C71.5377 140.12 71.6629 140.119 71.7882 140.115H71.7901Z" fill="#B39D81"/>
<path d="M139.892 71.5691C138.398 72.6258 136.919 73.6962 135.285 74.5494C133.324 75.5728 132.598 77.2988 132.904 79.5434C129.978 75.4359 130.772 70.1542 134.674 67.2385C136.009 66.2405 137.518 65.5732 139.019 64.8902C141.559 63.7337 143.88 62.1839 146.5 60.3875C146.019 64.6319 146.381 68.4498 146.512 72.2755C146.694 77.5649 144.412 80.3065 139.256 81.5022C138.553 81.6646 137.841 81.7918 136.982 81.827C139.741 80.4494 139.989 78.0503 139.888 75.4456C139.841 74.2324 140.032 73.0093 140.115 71.7902C140.117 71.665 140.12 71.5397 140.124 71.4145C140.046 71.4654 139.97 71.5182 139.892 71.5691Z" fill="#B39D81"/>
<path d="M118.141 155.224C123.291 159.233 124.041 163.153 120.438 168.546C118.477 171.483 116.601 174.454 114.945 178.088C113.231 173.732 110.482 170.489 108.499 166.804C106.092 162.333 107.564 157.738 111.879 155.4C111.585 157.79 112.667 161.075 115.125 165.255C115.863 161.746 119.624 159.468 117.867 155.466C117.961 155.388 118.053 155.306 118.141 155.224Z" fill="#B39D81"/>
<path d="M158.413 139.911C157.541 138.661 156.517 137.51 155.871 136.111C154.815 133.817 153.161 132.52 150.412 132.909C154.629 129.964 159.822 130.776 162.758 134.737C163.9 136.277 164.568 138.06 165.403 139.756C166.507 141.999 167.906 144.069 169.468 146.402C168.468 146.349 167.722 146.302 166.975 146.273C164.407 146.171 161.852 146.212 159.284 146.467C152.335 147.151 148.866 144.23 148.136 136.776C149.645 139.766 151.981 140.009 154.558 139.846C155.766 139.77 156.993 140.017 158.212 140.115C158.314 140.134 158.415 140.154 158.517 140.173C158.482 140.085 158.447 139.999 158.413 139.911Z" fill="#B39D81"/>
<path d="M169.693 83.4121C166.746 87.093 165.257 90.995 163.169 94.5585C161.012 98.2394 157.952 99.4018 153.797 98.4057C152.639 98.1278 151.51 97.7247 150.351 97.1905C153.39 97.5819 155.008 95.9009 156.044 93.4724C156.558 92.265 157.891 91.5155 157.885 90.0459C156.609 90.0635 155.333 90.0988 154.057 90.0949C150.799 90.0831 150.341 90.2768 148.216 92.6525C148.551 86.322 151.83 83.1734 158.147 83.4493C161.805 83.6078 165.448 83.9424 169.691 83.4121H169.693ZM158.472 89.9422L158.548 89.8346L158.425 89.8189L158.472 89.9422Z" fill="#B39D81"/>
<path d="M71.6023 90.0752C72.614 91.5253 73.6472 92.9557 74.4672 94.5349C75.5141 96.5505 77.2264 97.4037 79.6314 97.0182C75.0816 100.091 69.7941 99.2158 66.9664 94.8226C64.6671 91.2513 63.3168 87.134 60.6711 83.6097C65.1113 84.2339 69.4106 83.2398 73.7098 83.4747C78.5238 83.7388 81.8759 87.5743 81.4199 92.2611C79.8427 90.1594 77.7234 89.9656 75.4554 90.0733C74.2441 90.13 73.021 89.9441 71.8019 89.8678C71.6747 89.8678 71.5475 89.8639 71.4203 89.86C71.481 89.9304 71.5416 90.0009 71.6023 90.0713V90.0752Z" fill="#B39D81"/>
<path d="M74.5474 117.89C72.9603 121.513 68.6924 123.413 65.0095 122.235C64.1407 121.957 63.2522 121.628 62.4988 121.131C59.2054 118.955 55.9589 116.708 51.8456 114.967C56.2407 113.211 59.4813 110.456 63.1779 108.491C67.6846 106.094 72.1247 107.523 74.7196 112.155C70.5142 110.243 68.1914 114.215 64.7727 114.975C68.1523 115.667 70.3988 119.632 74.5474 117.89Z" fill="#B39D81"/>
<path d="M117.763 74.4927C119.849 70.4322 115.55 68.1896 115.01 64.7963C114.245 68.1328 110.274 70.3852 112.094 74.4946C109.061 73.4849 106.808 69.3383 107.443 66.0957C107.679 64.8883 108.067 63.7181 108.722 62.679C110.859 59.2897 113.239 56.0491 114.982 51.8496C116.681 56.1 119.286 59.274 121.27 62.8101C123.671 67.0898 122.874 70.7335 119.174 73.9174C118.787 74.25 118.454 74.794 117.765 74.4888L117.763 74.4927Z" fill="#B39D81"/>
<path d="M155.462 117.869C157.306 118.679 159.045 118.446 160.664 117.295C162.018 116.333 163.574 115.779 165.619 114.875C161.803 114.217 159.546 110.325 155.439 112.082C156.588 108.971 160.615 106.814 163.916 107.454C165.495 107.762 166.963 108.382 168.272 109.309C171.217 111.397 174.268 113.301 177.522 114.718C177.622 115.112 177.458 115.258 177.219 115.364C174.129 116.726 171.337 118.581 168.536 120.452C163.192 124.019 159.182 123.264 155.228 118.137C155.31 118.049 155.388 117.961 155.462 117.869Z" fill="#B39D81"/>
<path d="M83.4668 169.63C83.8699 165.617 83.6664 162.096 83.4629 158.558C83.0813 151.944 85.9736 148.805 93.1514 148.118C88.7837 150.378 90.5155 154.257 89.9774 157.456C89.8678 158.108 90.3629 158.104 90.809 157.82C92.4058 156.807 94.0242 155.824 95.578 154.75C96.6875 153.983 97.0985 152.779 97.1239 151.353C99.39 153.713 99.2667 158.552 96.9849 161.163C96.1748 162.09 95.2335 162.885 94.1377 163.444C90.6153 165.249 86.9951 166.873 83.4668 169.63ZM89.8639 158.402L89.7993 158.513L89.905 158.523L89.8639 158.402Z" fill="#B39D81"/>
<path d="M89.8678 71.8038C89.9441 72.9623 90.1124 74.1247 90.0791 75.2793C90.0146 77.5806 90.0067 79.8271 92.3648 81.4395C88.1496 81.7135 84.5803 79.1187 83.731 75.4573C83.4512 74.2539 83.3142 73.0328 83.4257 71.8117C83.7604 68.1543 83.9482 64.4969 83.4884 60.8571C84.1635 60.6124 84.4864 61.0821 84.8582 61.3404C87.0753 62.8805 89.3942 64.2366 91.8716 65.3168C93.1084 65.8569 94.2884 66.5027 95.3744 67.3109C98.1532 69.3812 99.2804 72.0856 98.5309 75.5102C98.2315 76.878 97.8832 78.2322 97.1474 79.5922C97.5877 76.424 95.6817 74.9486 93.2649 73.7392C92.1299 73.1698 91.1339 72.3224 90.0752 71.6023C90.0048 71.5416 89.9324 71.481 89.8619 71.4203C89.8619 71.5495 89.8658 71.6767 89.8678 71.8058V71.8038Z" fill="#B39D81"/>
<path d="M122.739 114.883C122.874 118.55 119.047 122.497 115.123 122.738C111.468 122.961 107.261 118.832 107.227 114.988C107.194 111.235 111.11 107.292 114.928 107.235C118.653 107.18 122.601 111.043 122.739 114.885V114.883ZM115.068 111.734C113.227 111.703 111.793 113.026 111.728 114.814C111.66 116.744 113.006 118.196 114.898 118.231C116.777 118.266 118.235 116.843 118.233 114.977C118.233 113.167 116.863 111.765 115.068 111.734ZM117.724 120.532C118.199 120.462 118.55 120.229 118.513 119.71C118.477 119.207 118.127 118.961 117.636 118.998C117.233 119.029 116.941 119.266 116.937 119.695C116.933 120.196 117.235 120.466 117.724 120.532ZM110.988 117.73C110.93 117.249 110.705 116.91 110.176 116.933C109.759 116.951 109.503 117.225 109.462 117.63C109.411 118.123 109.652 118.485 110.155 118.521C110.665 118.558 110.91 118.205 110.988 117.728V117.73ZM120.522 117.644C120.424 117.159 120.121 116.881 119.63 116.951C119.237 117.006 118.972 117.315 118.988 117.718C119.008 118.194 119.28 118.538 119.792 118.513C120.297 118.487 120.518 118.143 120.52 117.644H120.522ZM120.528 114.227C120.053 114.237 119.749 114.464 119.738 114.965C119.728 115.368 119.969 115.66 120.346 115.722C120.816 115.8 121.164 115.558 121.233 115.074C121.301 114.583 121.021 114.309 120.53 114.229L120.528 114.227ZM112.225 118.976C111.746 119.051 111.425 119.303 111.448 119.81C111.468 120.219 111.742 120.47 112.151 120.509C112.66 120.558 112.975 120.28 113.016 119.792C113.061 119.264 112.679 119.066 112.225 118.976ZM115.053 119.74C114.628 119.718 114.331 119.92 114.256 120.325C114.168 120.81 114.38 121.17 114.902 121.231C115.317 121.278 115.63 121.057 115.71 120.655C115.81 120.158 115.544 119.853 115.053 119.74ZM110.231 114.947C110.145 114.438 109.834 114.172 109.341 114.241C108.94 114.298 108.695 114.593 108.73 115.018C108.773 115.532 109.1 115.795 109.599 115.716C109.994 115.654 110.233 115.374 110.231 114.947ZM115.744 109.433C115.659 108.895 115.319 108.656 114.84 108.73C114.448 108.789 114.198 109.086 114.239 109.517C114.28 109.928 114.524 110.202 114.943 110.214C115.462 110.229 115.704 109.91 115.744 109.433ZM118.536 110.237C118.524 109.726 118.207 109.47 117.73 109.446C117.323 109.427 117.004 109.672 116.939 110.071C116.859 110.564 117.115 110.906 117.626 110.959C118.125 111.01 118.421 110.736 118.536 110.237ZM119.79 111.419C119.297 111.46 118.986 111.746 118.992 112.231C118.998 112.707 119.282 113.049 119.806 113.016C120.217 112.99 120.471 112.716 120.509 112.307C120.556 111.806 120.301 111.509 119.79 111.419ZM110.247 113.045C110.648 112.973 110.969 112.726 110.983 112.229C110.992 111.824 110.746 111.503 110.354 111.439C109.865 111.358 109.519 111.638 109.462 112.131C109.405 112.621 109.677 112.926 110.247 113.045ZM113.061 110.151C112.969 109.793 112.726 109.458 112.237 109.441C111.836 109.427 111.507 109.677 111.444 110.069C111.366 110.556 111.632 110.897 112.137 110.957C112.64 111.016 112.935 110.754 113.061 110.151Z" fill="#B39D81"/>
<path d="M33.764 107.736C39.2883 107.366 43.7304 104.72 47.8908 101.386C49.1745 100.357 50.6734 99.6071 52.2468 99.0807C53.188 98.7657 53.6283 98.4212 52.7888 97.4761C51.104 95.5759 50.0375 93.3138 49.1138 90.9694C47.5522 87.0087 45.11 83.7172 41.5837 81.2731C41.3528 81.1126 41.1669 80.8837 40.6934 80.4316C43.9203 81.1009 46.1785 82.6684 48.0845 84.8033C49.5639 86.4588 50.6832 88.3433 51.4679 90.4235C52.5286 93.2394 53.8593 95.9164 55.7476 98.2725C56.3386 99.0103 56.5069 99.3743 55.4169 99.7852C52.5305 100.871 50.057 102.658 47.6305 104.537C43.5328 107.705 39.0026 109.26 33.7621 107.738L33.764 107.736Z" fill="#B39D81"/>
<path d="M80.6117 40.7012C81.9816 42.6541 83.3396 44.2881 85.001 45.6384C86.7701 47.0767 88.7074 48.2293 90.8286 49.0571C93.2336 49.9944 95.533 51.104 97.5212 52.781C98.0769 53.2507 98.57 53.6792 98.9595 52.5579C99.9125 49.8065 101.621 47.5072 103.364 45.2079C105.695 42.1336 107.139 38.6621 107.446 34.7699C107.474 34.4313 107.339 34.0204 107.857 33.7034C108.728 36.2414 108.54 38.7286 107.869 41.2021C107.219 43.5895 106.086 45.7499 104.523 47.6677C102.584 50.0511 100.875 52.5755 99.7637 55.4541C99.4213 56.3386 99.1473 56.4599 98.3841 55.8416C95.94 53.8592 93.128 52.5442 90.2142 51.3877C86.3454 49.8515 83.2222 47.4015 81.3573 43.5719C80.9659 42.7696 80.5178 41.9634 80.6117 40.7031V40.7012Z" fill="#B39D81"/>
<path d="M188.923 80.6274C184.544 83.6254 181.923 87.8718 180.078 92.7151C179.401 94.4919 178.354 96.0888 177.125 97.5466C176.564 98.2139 176.509 98.6405 177.473 98.981C180.102 99.9066 182.325 101.511 184.516 103.2C187.998 105.879 191.95 107.382 196.447 107.533C194.935 108.445 192.763 108.681 190.332 108.237C187.452 107.711 184.849 106.546 182.561 104.723C180.064 102.732 177.46 100.916 174.468 99.754C173.485 99.3724 173.614 99.0045 174.157 98.3372C176.141 95.8872 177.393 93.0439 178.597 90.1535C180.559 85.4375 183.681 81.8838 188.923 80.6294V80.6274Z" fill="#B39D81"/>
<path d="M107.654 196.43C107.388 191.154 105.196 186.759 101.907 182.796C100.652 181.285 99.7246 179.542 99.073 177.685C98.7207 176.683 98.3391 176.413 97.4448 177.184C95.4273 178.925 93.0399 180.008 90.586 180.99C86.8425 182.489 84.7603 184.215 80.3945 189.307C80.7037 187.591 81.2419 186.442 81.8974 185.352C83.8719 182.078 86.7896 179.927 90.2846 178.536C93.1377 177.401 95.8969 176.111 98.3098 174.178C98.9125 173.695 99.3274 173.356 99.7363 174.432C100.877 177.434 102.744 180.006 104.699 182.528C108.135 186.964 109.19 191.839 107.652 196.428L107.654 196.43Z" fill="#B39D81"/>
<path d="M48.1099 67.7844C52.9904 70.4966 58.1565 70.5651 63.4401 69.6865C65.2072 69.3929 66.984 69.5808 68.7413 69.8489C69.6297 69.9839 70.025 69.7178 69.8489 68.7843C69.299 65.8451 69.7765 62.9489 70.0935 60.0234C70.5416 55.8767 69.8254 51.8808 67.9507 48.0981C70.659 50.3407 71.9212 53.3367 72.3106 56.7182C72.4848 58.225 72.5181 59.7925 72.3165 61.2914C71.8899 64.4577 71.6062 67.6141 72.0054 70.796C72.1267 71.7549 71.8743 72.158 70.843 72.0034C67.5985 71.5161 64.3892 71.9701 61.1603 72.3282C56.5499 72.8409 52.2565 71.9819 48.6735 68.7765C48.4249 68.5554 48.0336 68.4008 48.1079 67.7824L48.1099 67.7844Z" fill="#B39D81"/>
<path d="M122.225 196.385C120.718 191.361 122.004 186.878 125.006 182.851C126.984 180.197 128.994 177.595 130.201 174.481C130.508 173.691 130.884 173.581 131.536 174.11C134.23 176.292 137.412 177.544 140.545 178.931C145.038 180.922 148.271 184.127 149.408 189.125C146.345 184.469 141.868 181.806 136.804 179.898C135.205 179.295 133.784 178.291 132.483 177.166C131.759 176.54 131.322 176.468 130.945 177.534C130.035 180.096 128.501 182.293 126.829 184.42C124.082 187.919 122.597 191.939 122.225 196.385Z" fill="#B39D81"/>
<path d="M41.0397 149.073C45.5151 146.077 48.0825 142.025 49.8085 137.336C50.468 135.547 51.5403 133.964 52.7458 132.491C53.3035 131.808 53.5892 131.354 52.4386 130.953C49.8692 130.054 47.6775 128.504 45.5484 126.829C42.0475 124.074 38.0163 122.608 33.5723 122.215C38.5232 120.722 42.9575 121.97 46.9495 124.906C49.6676 126.904 52.3231 128.958 55.4835 130.217C56.3053 130.544 56.3308 130.911 55.8259 131.549C53.7086 134.215 52.3818 137.295 51.0844 140.41C49.6833 143.774 47.4133 146.465 44.204 148.275C43.343 148.76 42.4604 149.33 41.0378 149.071L41.0397 149.073Z" fill="#B39D81"/>
<path d="M122.225 33.5762C122.54 39.1004 125.092 43.6071 128.489 47.7675C129.614 49.1451 130.373 50.7772 130.964 52.4581C131.279 53.3563 131.618 53.4855 132.358 52.8554C134.532 51.0061 137.087 49.8555 139.715 48.8007C142.897 47.5248 145.533 45.4584 147.746 42.8459C148.062 42.4741 148.369 42.0925 148.699 41.7344C148.764 41.664 148.925 41.6835 149.083 41.6542C149.29 42.66 148.703 43.4271 148.275 44.1962C146.377 47.5972 143.48 49.8848 139.909 51.3055C136.995 52.4659 134.172 53.7712 131.702 55.7281C130.909 56.3562 130.518 56.2858 130.138 55.3171C128.968 52.3192 127.047 49.787 125.121 47.2411C122.057 43.1903 120.73 38.6954 122.225 33.5762Z" fill="#B39D81"/>
<path d="M196.361 122.217C190.929 122.581 186.428 124.984 182.33 128.391C180.921 129.561 179.237 130.362 177.485 130.953C176.624 131.242 176.438 131.616 177.086 132.369C178.947 134.532 180.092 137.095 181.16 139.714C182.452 142.884 184.471 145.547 187.099 147.752C187.546 148.128 188.182 148.347 188.363 149.105C186.943 149.208 185.902 148.416 184.863 147.739C181.781 145.727 179.763 142.85 178.45 139.463C177.36 136.653 176.061 133.964 174.151 131.614C173.605 130.941 173.485 130.565 174.462 130.191C177.464 129.043 180.023 127.168 182.559 125.223C186.636 122.096 191.176 120.714 196.361 122.215V122.217Z" fill="#B39D81"/>
<path d="M68.4849 181.129C69.299 178.471 70.0857 175.859 70.1913 173.09C70.3479 169.006 68.9879 164.969 69.8489 160.859C70.0289 159.998 69.346 160.03 68.7863 160.118C65.7864 160.595 62.8276 160.18 59.8453 159.852C56.5206 159.488 53.2624 159.951 50.1333 161.196C49.5834 161.415 49.0609 161.834 48.2469 161.535C51.0139 158.903 54.2584 157.723 57.9452 157.519C61.0194 157.351 64.0154 158.196 67.076 158.141C68.6532 158.114 70.7177 157.447 71.6786 158.198C72.7588 159.041 71.5651 161.141 71.7471 162.705C71.9506 164.462 72.0563 166.233 72.2676 167.99C72.7177 171.71 72.4574 175.313 70.6277 178.675C70.1072 179.63 69.5612 180.573 68.483 181.127L68.4849 181.129Z" fill="#B39D81"/>
<path d="M181.344 161.789C176.984 159.871 172.474 159.282 167.763 160.128C165.652 160.505 163.505 160.447 161.386 160.128C160.298 159.965 159.961 160.302 160.128 161.39C160.544 164.129 160.261 166.847 159.891 169.581C159.339 173.673 160.163 177.587 161.781 181.352C161.713 181.42 161.646 181.489 161.578 181.557C157.83 177.965 157.116 173.413 157.66 168.564C158.008 165.452 158.331 162.358 157.959 159.241C157.832 158.171 158.149 157.836 159.233 157.963C162.413 158.331 165.566 157.993 168.738 157.644C173.522 157.12 178.015 157.883 181.55 161.585C181.481 161.654 181.411 161.722 181.344 161.791V161.789Z" fill="#B39D81"/>
<path d="M181.438 68.4968C179.033 70.9468 176.26 71.9096 173.26 72.3283C171.626 72.5573 169.967 72.5299 168.325 72.2931C165.356 71.8626 162.382 71.5202 159.386 71.98C158.343 72.1405 157.785 71.9957 157.952 70.7022C158.345 67.6534 158.069 64.6202 157.658 61.5753C157.175 57.9962 157.584 54.5031 159.318 51.2508C159.862 50.2313 160.521 49.3115 161.492 48.4231C161.552 48.8047 161.652 49.0043 161.595 49.1315C159.578 53.5853 159.415 58.2173 160.204 62.9588C160.505 64.7787 160.421 66.6221 160.139 68.4381C159.967 69.5437 160.173 70.0525 161.429 69.8294C164.112 69.3539 166.773 69.6924 169.45 70.0525C172.83 70.5065 176.151 70.0936 179.374 68.939C179.929 68.7394 180.44 68.3383 181.44 68.4987L181.438 68.4968Z" fill="#B39D81"/>
<path d="M127.274 114.965C128.571 114.131 129.771 113.321 131.009 112.574C132.947 111.405 135.066 111.165 137.209 111.75C139.211 112.298 141.144 113.094 143.128 113.71C145.079 114.315 147.118 114.546 149.169 115.008C144.868 115.272 141.052 117.162 137.015 118.227C134.688 118.839 132.399 118.438 130.367 116.984C129.389 116.284 128.354 115.665 127.276 114.965H127.274Z" fill="#B39D81"/>
<path d="M114.984 149.304C114.546 145.84 113.728 142.596 112.431 139.467C110.928 135.845 111.139 132.444 113.679 129.307C114.161 128.712 114.493 127.998 114.971 127.213C115.933 128.761 116.894 130.16 117.699 131.641C118.612 133.326 118.726 135.211 118.231 137.003C117.106 141.093 115.245 144.979 114.982 149.302L114.984 149.304Z" fill="#B39D81"/>
<path d="M114.982 102.683C114.18 101.449 113.417 100.292 112.671 99.1238C111.409 97.1454 111.133 94.9497 111.756 92.7698C112.885 88.8188 114.63 85.0401 115.004 80.8074C115.241 85.1321 117.192 88.9284 118.241 92.9674C118.867 95.3763 118.378 97.6933 116.863 99.7558C116.19 100.674 115.626 101.672 114.982 102.681V102.683Z" fill="#B39D81"/>
<path d="M104.603 120.927C103.638 122.252 103.094 123.473 102.511 124.675C101.265 127.242 99.0788 128.634 96.3627 129.142C92.9303 129.784 89.496 130.363 86.2926 131.849C86.0949 131.941 85.819 131.86 85.1987 131.86C88.5958 129.684 90.9265 126.886 93.2904 124.105C95.4273 121.593 98.1806 120.501 101.484 121.011C102.441 121.158 103.39 121.105 104.605 120.927H104.603Z" fill="#B39D81"/>
<path d="M120.984 125.544C122.46 126.305 123.812 126.97 125.135 127.692C126.937 128.677 128.146 130.201 128.716 132.144C129.876 136.097 130.043 140.306 131.831 144.179C129.354 140.559 125.553 138.395 122.755 135.222C121.331 133.606 120.775 131.606 120.918 129.436C121 128.172 121.223 126.915 120.984 125.544Z" fill="#B39D81"/>
<path d="M125.599 121.039C126.133 121.078 126.442 121.168 126.72 121.111C132.215 119.949 135.96 122.475 138.958 126.769C140.344 128.751 142.414 130.093 144.138 131.878C140.265 129.996 135.982 129.892 131.99 128.679C130 128.074 128.487 126.737 127.524 124.851C126.919 123.667 126.325 122.477 125.599 121.039Z" fill="#B39D81"/>
<path d="M104.409 108.928C102.873 108.728 101.564 108.971 100.245 109.039C98.0065 109.157 95.985 108.45 94.3882 106.912C91.5077 104.139 89.3277 100.682 85.864 98.576C86.1752 98.0437 86.4178 98.1435 86.6174 98.2316C89.4334 99.4605 92.3883 100.163 95.4155 100.601C99.0808 101.132 101.756 102.94 103.102 106.515C103.392 107.286 103.889 107.981 104.409 108.926V108.928Z" fill="#B39D81"/>
<path d="M131.792 85.8328C130.148 89.5528 129.841 93.539 128.872 97.3588C128.24 99.8499 126.665 101.676 124.252 102.705C123.188 103.159 122.162 103.687 121.152 104.496C121.07 103.057 121.002 101.772 120.92 100.486C120.751 97.8128 121.675 95.5428 123.624 93.7581C126.405 91.2122 129.457 88.952 131.792 85.8328Z" fill="#B39D81"/>
<path d="M108.736 125.636C108.84 126.968 108.971 128.299 109.043 129.634C109.161 131.804 108.529 133.788 107.075 135.369C104.288 138.404 100.633 140.561 98.1904 144.081C99.9966 140.154 100.028 135.86 101.316 131.894C102.004 129.775 103.476 128.254 105.521 127.303C106.619 126.792 107.683 126.213 108.761 125.665L108.736 125.636Z" fill="#B39D81"/>
<path d="M125.665 108.761C126.322 107.464 126.953 106.153 127.647 104.875C128.557 103.202 129.925 101.979 131.72 101.378C135.735 100.034 140.095 100.022 144.079 98.1963C140.619 100.611 138.457 104.171 135.51 106.959C133.804 108.574 131.649 109.231 129.27 109.022C128.06 108.916 126.849 108.83 125.638 108.736L125.667 108.761H125.665Z" fill="#B39D81"/>
<path d="M108.746 104.349C108.169 104.008 107.63 103.558 107.01 103.347C102.511 101.811 100.783 98.3195 100.329 93.942C100.044 91.1906 98.9536 88.6643 98.071 86.0205C98.9066 86.0342 99.0749 86.6448 99.3939 87.04C100.819 88.8091 102.323 90.4959 104.167 91.8383C107.762 94.4547 109.785 97.7442 108.855 102.374C108.726 103.022 108.765 103.705 108.728 104.37L108.748 104.349H108.746Z" fill="#B39D81"/>
<path d="M102.766 115.023C102.165 115.354 101.685 115.522 101.325 115.834C97.4194 119.199 93.2278 118.937 88.8444 116.924C86.8875 116.023 84.7662 115.697 82.6469 115.393C82.2477 115.337 81.7605 115.472 81.3965 114.677C85.5118 114.523 89.1046 112.716 92.9264 111.724C95.4097 111.08 97.758 111.603 99.8616 113.151C100.732 113.793 101.68 114.331 102.764 115.025L102.766 115.023Z" fill="#B39D81"/>
<path d="M125.867 60.1525C125.025 56.8845 123.182 54.2701 120.906 51.9042C119.209 50.141 117.534 48.3544 115.888 46.5443C115.307 45.9064 114.908 45.5893 114.166 46.4171C112.045 48.7888 109.806 51.053 107.683 53.4227C105.317 56.0626 104.114 59.2229 103.826 63.0525C103.188 58.9235 104.531 55.6281 106.525 52.5187C109.157 48.4151 112.662 44.9279 114.963 40.1257C117.407 45.1862 121.252 48.8104 123.88 53.2818C125.115 55.3835 126.328 57.5361 125.865 60.1544L125.867 60.1525Z" fill="#B39D81"/>
<path d="M170.141 104.163C172.2 103.693 173.906 104.579 175.585 105.438C178.213 106.785 180.495 108.656 182.812 110.46C184.892 112.078 187.066 113.546 189.504 114.847C188.823 115.759 187.745 115.947 186.945 116.534C183.89 118.78 180.847 121.048 177.73 123.207C174.697 125.307 171.393 126.669 167.523 126.162C173.243 125.761 177 122.088 180.694 118.344C181.837 117.188 184.025 116.323 183.9 114.88C183.796 113.693 181.822 112.665 180.673 111.571C177.54 108.587 174.624 105.292 170.139 104.163H170.141Z" fill="#B39D81"/>
<path d="M114.945 189.761C111.611 182.915 105.376 178.246 103.631 170.857C103.586 170.665 103.726 170.429 103.768 170.258C104.18 170.172 104.331 170.374 104.4 170.609C106.053 176.276 110.912 179.503 114.409 183.765C114.957 184.432 115.339 183.994 115.732 183.569C117.849 181.28 119.972 178.994 122.092 176.704C124.493 174.111 125.7 170.973 126.195 167.039C126.624 170.859 125.587 173.812 123.927 176.614C122.33 179.309 120.305 181.69 118.43 184.182C117.186 185.837 116.113 187.604 114.943 189.759L114.945 189.761Z" fill="#B39D81"/>
<path d="M167.632 132.493C169.581 133.43 170.617 134.747 171.603 136.093C173.17 138.232 174.2 140.661 175.194 143.093C176.462 146.191 177.74 149.279 179.757 152.39C174.591 152.036 169.883 153.224 165.094 153.512C162.09 153.692 159.147 153.425 156.331 151.946C156.541 151.834 156.646 151.729 156.715 151.75C162.793 153.545 168.399 150.928 174.174 149.897C174.793 149.788 175.041 149.506 174.83 148.897C173.405 144.805 172.746 140.443 170.62 136.608C169.875 135.262 168.808 134.093 167.632 132.495V132.493Z" fill="#B39D81"/>
<path d="M151.715 156.613C153.132 158.247 153.367 160.284 153.509 162.315C153.695 164.949 153.347 167.562 152.96 170.162C152.504 173.227 152.208 176.301 152.374 179.743C147.484 176.471 141.964 175.215 137.205 172.339C135.383 171.239 133.776 169.918 132.782 167.926C135.13 170.01 137.77 171.509 140.766 172.382C143.345 173.133 145.909 173.935 148.474 174.73C149.179 174.949 149.713 175.094 149.93 174.061C150.598 170.894 151.394 167.754 152.067 164.589C152.635 161.924 152.5 159.274 151.711 156.611L151.715 156.613Z" fill="#B39D81"/>
<path d="M40.1611 114.988C43.9437 113.078 46.8575 110.648 49.8809 108.368C51.9356 106.82 54.0569 105.384 56.4971 104.482C57.726 104.026 58.955 103.754 60.5381 104.157C56.6419 104.916 53.871 107.1 51.2996 109.638C49.7341 111.184 48.1001 112.66 46.4681 114.135C45.8732 114.673 45.6247 115.074 46.3605 115.734C48.8164 117.937 51.2077 120.213 53.6557 122.426C55.4424 124.043 57.5832 125.043 60.2563 125.792C59.135 126.203 58.4109 126.049 57.6732 125.847C55.2154 125.17 53.0745 123.878 51.0276 122.419C47.5581 119.943 44.384 117.051 40.163 114.988H40.1611Z" fill="#B39D81"/>
<path d="M62.2757 132.823C59.5929 135.408 58.0821 138.625 57.1331 142.175C56.5656 144.298 55.8787 146.392 55.2212 148.492C54.9942 149.218 54.9003 149.727 55.912 149.94C59.0195 150.598 62.1016 151.382 65.2091 152.046C67.8744 152.615 70.5436 152.49 73.4437 151.529C72.3419 152.623 71.8488 152.84 69.9408 153.224C66.5143 153.913 63.125 153.392 59.7298 152.942C56.7045 152.541 53.6772 152.134 50.4855 152.416C50.6264 151.132 51.5442 150.394 51.9669 149.42C53.3269 146.281 54.683 143.14 56.1135 140.032C57.4775 137.07 59.0958 134.275 62.0546 132.567C62.127 132.653 62.2014 132.739 62.2757 132.823Z" fill="#B39D81"/>
<path d="M132.569 62.0567C134.046 59.4344 136.43 57.8474 139.036 56.6028C141.79 55.2878 144.641 54.1841 147.416 52.9141C149.011 52.1822 150.537 51.3016 152.369 50.3447C151.926 56.3719 153.856 62.0547 153.496 67.9136C153.374 69.8861 152.983 71.8137 151.705 73.4653C153.77 67.2483 150.874 61.5851 149.876 55.7301C149.764 55.0745 149.384 54.9375 148.825 55.1352C144.801 56.5578 140.529 57.2388 136.7 59.2407C135.217 60.0176 134.062 61.1995 132.813 62.27C132.731 62.1976 132.649 62.1271 132.565 62.0567H132.569Z" fill="#B39D81"/>
<path d="M156.427 78.199C159.437 76.3008 162.773 76.2245 166.135 76.5121C170.562 76.8918 174.931 77.8996 179.798 77.5356C176.374 82.5433 175.164 88.2319 172.153 93.0674C171.053 94.8305 169.693 96.3393 167.734 97.2981C172.325 93.0008 172.746 86.9228 174.702 81.512C175.02 80.6333 174.933 80.1989 173.91 79.9837C170.859 79.3418 167.828 78.6041 164.785 77.9172C161.985 77.2832 159.216 77.5532 156.427 78.2029V78.199Z" fill="#B39D81"/>
<path d="M96.8245 61.9392C93.5996 58.6183 89.3042 57.5088 85.0617 56.3542C83.4981 55.9296 81.6489 54.4952 80.4552 55.3327C79.4709 56.0235 79.5276 58.2211 79.1617 59.7592C78.4279 62.8452 77.4064 65.8979 77.5942 69.1209C77.6823 70.6532 78.0619 72.1678 78.1852 73.7157C77.0346 71.8136 76.5297 69.7452 76.4279 67.5515C76.2949 64.6631 76.698 61.8198 77.105 58.9765C77.5023 56.1977 77.7547 53.4091 77.5336 50.1313C82.7154 53.732 88.7191 54.824 93.6309 58.1937C94.9889 59.1252 96.2981 60.1388 97.0965 61.6496C97.0065 61.7454 96.9165 61.8413 96.8245 61.9372V61.9392Z" fill="#B39D81"/>
<path d="M77.9328 157.488C77.8095 158.717 77.5981 159.946 77.5805 161.177C77.5336 164.46 78.4944 167.579 79.3182 170.71C79.6842 172.1 79.3476 174.147 80.5648 174.699C81.5452 175.143 83.1929 174.153 84.5314 173.757C86.4667 173.188 88.3962 172.591 90.3198 171.986C92.9929 171.145 95.2511 169.634 97.1885 167.542C97.5153 168.329 96.9615 168.662 96.6405 169.055C94.7737 171.346 92.2747 172.763 89.6545 173.98C85.7251 175.802 81.5334 177.057 77.6921 179.751C77.5453 177.213 77.6177 174.931 77.3222 172.673C76.878 169.282 76.2518 165.9 76.426 162.45C76.514 160.693 76.7938 158.997 77.9328 157.486V157.488Z" fill="#B39D81"/>
<path d="M61.6535 97.0965C59.3072 95.6836 57.8552 93.488 56.7124 91.1182C55.2545 88.0968 54.0236 84.9677 52.6284 81.915C51.9983 80.5373 51.2116 79.2321 50.3936 77.7057C52.6988 77.5159 54.9218 77.6333 57.1175 77.3398C60.7436 76.8564 64.3657 76.1246 68.0486 76.4846C69.571 76.6334 71.2677 76.4631 72.3987 77.9014L72.3929 77.8975C66.6905 76.7547 61.4206 78.9581 56.0001 80.0051C55.2995 80.1401 54.8534 80.3808 55.1488 81.2183C56.4306 84.8425 57.1507 88.6486 58.7064 92.1866C59.4814 93.9478 60.7142 95.3783 61.9353 96.8245L61.6535 97.0925V97.0965Z" fill="#B39D81"/>
<path d="M207.584 115.02C204.521 115.38 201.972 116.935 199.261 118.092C197.085 119.019 195.349 118.117 193.647 116.609C192.303 115.417 191.749 114.859 193.524 113.444C196.216 111.298 197.573 110.832 200.606 112.45C202.803 113.622 205.097 114.433 207.584 115.02Z" fill="#B39D81"/>
<path d="M195.293 68.5105C193.371 70.2815 191.729 72.1992 190.359 74.4046C188.596 77.2441 187.14 77.7274 183.865 76.9525C183.158 76.7861 182.436 76.6805 181.618 76.5278C181.867 75.7529 182.117 75.023 182.334 74.2813C183.234 71.1914 184.414 70.2169 187.639 69.9371C188.974 69.8216 190.328 69.8236 191.639 69.5829C192.882 69.3539 194.078 68.8764 195.293 68.5085V68.5105Z" fill="#B39D81"/>
<path d="M114.955 207.3C114.407 204.805 113.448 202.531 112.3 200.298C110.765 197.31 111.82 193.942 114.656 192.152C115.018 191.923 115.141 192.089 115.389 192.303C118.82 195.256 119.262 197.402 117.074 201.445C116.076 203.289 115.585 205.271 114.955 207.3Z" fill="#B39D81"/>
<path d="M68.4987 195.379C69.6043 192.788 69.8293 190.09 70.0055 187.346C70.2148 184.092 72.886 181.767 76.1168 181.671C76.5571 181.657 76.5727 181.88 76.6765 182.178C78.1735 186.432 77.4592 188.549 73.5337 190.929C71.5866 192.109 70.119 193.78 68.4987 195.379Z" fill="#B39D81"/>
<path d="M115.006 22.4258C115.378 25.3689 116.816 27.8503 118.01 30.4392C119.164 32.9421 117.967 34.8285 116.274 36.6758C115.25 37.7932 114.869 38.1024 113.728 36.7169C111.108 33.537 110.781 32.2454 112.769 28.6898C113.863 26.7329 114.454 24.6488 115.006 22.4258Z" fill="#B39D81"/>
<path d="M22.4396 114.953C25.0814 114.501 27.4355 113.429 29.772 112.223C32.316 110.912 34.0008 111.268 36.1045 113.221C36.7228 113.795 37.3549 114.352 37.9694 114.906C37.9342 115.395 37.4665 115.429 37.2316 115.689C34.1163 119.121 32.1516 119.225 27.868 116.763C26.2027 115.806 24.3143 115.528 22.4415 114.953H22.4396Z" fill="#B39D81"/>
<path d="M194.929 161.151C192.561 160.359 190.166 160.108 187.726 159.969C184.301 159.774 183.375 158.809 182.26 155.594C181.675 153.905 181.698 153.269 183.747 152.948C187.258 152.398 188.637 152.705 190.5 155.748C191.723 157.746 193.244 159.449 194.931 161.151H194.929Z" fill="#B39D81"/>
<path d="M48.3408 153.437C47.9318 154.668 47.5659 155.879 47.1236 157.061C46.4524 158.858 45.0435 159.717 43.2079 159.883C40.5661 160.122 37.895 160.122 35.2454 161.004C37.6386 158.987 38.8773 156.147 40.8694 153.905C41.8498 152.801 43.2236 152.416 44.7108 152.693C45.8986 152.915 47.0786 153.177 48.3408 153.437Z" fill="#B39D81"/>
<path d="M68.6885 34.9519C70.7354 37.3569 73.5357 38.7854 75.9152 40.7384C77.514 42.0495 77.4788 43.9399 77.0424 45.8243C76.4808 48.247 76.4906 48.2489 74.1991 47.5562C71.0015 46.5895 70.0446 45.4016 69.935 41.8343C69.8626 39.4977 69.5632 37.2434 68.6904 34.95L68.6885 34.9519Z" fill="#B39D81"/>
<path d="M153.439 181.618C153.717 181.677 153.832 181.708 153.95 181.726C158.811 182.512 160.452 185.577 160.182 190.211C160.104 191.553 160.67 192.935 160.799 194.432C158.725 192.146 155.85 190.951 153.689 188.845C152.676 187.857 152.451 186.487 152.717 185.088C152.932 183.953 153.187 182.826 153.439 181.616V181.618Z" fill="#B39D81"/>
<path d="M35.0086 68.7903C37.6934 69.8 40.439 69.8274 43.161 70.0564C45.703 70.2697 46.9945 71.8391 47.5972 74.2304C48.1706 76.4984 48.2528 76.4769 45.9574 76.9974C42.8459 77.7039 41.2667 77.152 39.6034 74.4359C38.3314 72.3557 36.7933 70.528 35.0067 68.7883L35.0086 68.7903Z" fill="#B39D81"/>
<path d="M160.834 35.4685C159.967 38.2903 160.233 41.1376 159.766 43.885C159.49 45.5093 158.5 46.6325 156.924 47.1824C155.785 47.5796 154.635 47.9397 153.431 48.335C153.196 47.2078 152.981 46.1452 152.756 45.0866C152.333 43.0906 152.93 41.4253 154.566 40.255C156.68 38.7424 158.991 37.4958 160.834 35.4685Z" fill="#B39D81"/>
<path d="M74.8115 125.894C78.4846 119.996 83.8895 120.09 89.5664 121.82C83.8504 127.377 83.0852 127.587 74.8115 125.894Z" fill="#B39D81"/>
<path d="M121.83 89.5527C120.033 83.8112 120.09 78.4337 125.88 74.7979C127.628 83.0402 127.487 83.5588 121.83 89.5527Z" fill="#B39D81"/>
<path d="M85.2965 144.698C85.9814 142.639 86.5567 140.799 87.2084 138.987C87.6819 137.666 88.633 136.688 89.8913 136.122C92.0282 135.162 94.2121 134.308 96.482 133.367C94.1299 141.251 93.9635 141.42 85.2965 144.698Z" fill="#B39D81"/>
<path d="M108.149 89.4804C103.685 85.5138 101.235 80.784 104.241 74.8782C109.81 78.4456 109.947 83.8074 108.149 89.4804Z" fill="#B39D81"/>
<path d="M144.294 85.4922C144.003 92.3471 139.398 95.03 133.575 96.3177C135.77 88.5547 136.755 87.5645 144.294 85.4922Z" fill="#B39D81"/>
<path d="M144.488 144.474C136.269 141.844 137.328 143.443 133.469 133.616C140.281 134.872 142.711 137.267 144.488 144.474Z" fill="#B39D81"/>
<path d="M74.7724 104.075C76.3673 103.728 78.1343 103.316 79.9151 102.969C81.4904 102.662 82.9854 102.991 84.275 103.926C86.1321 105.272 87.9265 106.705 89.6956 108.061C83.8034 109.953 78.4552 109.803 74.7724 104.077V104.075Z" fill="#B39D81"/>
<path d="M96.3314 96.5133C86.3865 92.49 88.224 93.7424 85.4257 85.4961C92.3197 86.8992 95.4449 90.0556 96.3314 96.5133Z" fill="#B39D81"/>
<path d="M155.533 125.843C149.953 126.816 144.872 125.493 140.289 121.874C146.809 119.659 149.128 120.248 155.533 125.843Z" fill="#B39D81"/>
<path d="M121.861 140.4C128.591 148.486 127.522 146.88 125.843 155.155C120.141 151.492 120 146.154 121.861 140.4Z" fill="#B39D81"/>
<path d="M155.306 104.302C154.312 105.178 153.22 105.985 152.32 106.967C150.59 108.853 148.482 109.452 146.032 109.118C144.064 108.848 142.097 108.548 140.113 108.259C147.155 102.374 149.791 101.693 155.306 104.302Z" fill="#B39D81"/>
<path d="M104.047 155.173C103.76 153.781 103.519 152.273 103.126 150.803C102.597 148.829 102.912 147.024 104.09 145.41C105.372 143.649 106.76 141.964 108.063 140.297C109.947 146.148 109.828 151.488 104.047 155.175V155.173Z" fill="#B39D81"/>
<path d="M62.0546 132.567C62.1994 132.359 62.4558 132.158 62.6163 132.369C62.8139 132.631 62.4264 132.688 62.2758 132.823C62.2014 132.739 62.127 132.653 62.0546 132.567Z" fill="#B39D81"/>
<path d="M154.65 117.591C154.985 117.493 155.253 117.591 155.46 117.871C155.384 117.963 155.306 118.051 155.226 118.139C155.044 117.949 154.862 117.757 154.682 117.567L154.65 117.593V117.591Z" fill="#B39D81"/>
<path d="M135.584 46.695C135.494 46.9377 135.228 47.0884 135.109 46.9025C134.948 46.65 135.281 46.6422 135.455 46.5894C135.457 46.5894 135.582 46.6931 135.582 46.6931L135.584 46.695Z" fill="#B39D81"/>
<path d="M135.438 183.477C135.285 183.358 134.884 183.358 135.068 183.074C135.203 182.867 135.492 183.004 135.635 183.242C135.569 183.321 135.504 183.399 135.438 183.477Z" fill="#B39D81"/>
<path d="M132.817 62.2699C132.686 62.4206 132.635 62.812 132.371 62.6183C132.158 62.4598 132.358 62.2014 132.569 62.0586C132.653 62.129 132.735 62.1995 132.817 62.2719V62.2699Z" fill="#B39D81"/>
<path d="M63.9495 66.2854L63.9514 66.3582L63.8334 66.3247L63.9495 66.2854Z" fill="#B39D81"/>
<path d="M117.865 155.466C117.591 155.257 117.493 154.987 117.591 154.65L117.565 154.68C117.757 154.862 117.947 155.042 118.139 155.224C118.051 155.306 117.959 155.388 117.865 155.466Z" fill="#B39D81"/>
<path d="M46.4368 93.95C46.6834 94.1554 46.8321 94.3785 46.566 94.676C46.4211 94.5233 46.2783 94.3707 46.1335 94.218C46.2352 94.13 46.335 94.04 46.4368 93.9519V93.95Z" fill="#B39D81"/>
<path d="M108.726 104.37L108.817 104.388L108.746 104.347L108.726 104.37Z" fill="#B39D81"/>
<path d="M61.9353 96.8264C61.9862 96.9654 62.0371 97.1023 62.0879 97.2413C61.9431 97.1924 61.7983 97.1434 61.6535 97.0945C61.7474 97.0045 61.8414 96.9145 61.9353 96.8264Z" fill="#B39D81"/>
<path d="M125.636 108.736L125.583 108.86L125.665 108.762L125.636 108.736Z" fill="#B39D81"/>
<path d="M117.592 154.653C117.527 154.614 117.462 154.574 117.397 154.535C117.431 154.539 117.48 154.529 117.496 154.547C117.529 154.584 117.543 154.637 117.566 154.682L117.592 154.653Z" fill="#B39D81"/>
<path d="M112.241 154.801L112.283 154.937L112.164 154.921L112.241 154.801Z" fill="#B39D81"/>
<path d="M181.55 161.582C181.606 161.687 181.663 161.795 181.72 161.901C181.595 161.863 181.469 161.824 181.344 161.787C181.411 161.719 181.479 161.65 181.55 161.582Z" fill="#B39D81"/>
<path d="M72.3968 77.9014L72.4404 77.949L72.3928 77.8994L72.3968 77.9014Z" fill="#B39D81"/>
<path d="M112.221 75.1762L112.192 75.0522L112.296 75.0739L112.221 75.1762Z" fill="#B39D81"/>
<path d="M75.0916 112.31L75.0522 112.2L75.1643 112.219L75.0916 112.31Z" fill="#B39D81"/>
<path d="M181.64 68.0642C181.674 68.1035 181.707 68.1429 181.743 68.1822C181.701 68.2137 181.656 68.2727 181.619 68.2668C181.581 68.2629 181.55 68.196 181.516 68.1567C181.558 68.1252 181.599 68.0937 181.64 68.0642Z" fill="#B39D81"/>
<path d="M108.762 125.665C108.783 125.632 108.805 125.597 108.826 125.563C108.797 125.587 108.765 125.61 108.736 125.636L108.762 125.665Z" fill="#B39D81"/>
<path d="M46.7009 135.584C46.607 135.735 46.5131 135.886 46.4191 136.036C46.3213 135.931 46.2254 135.823 46.1276 135.718C46.2782 135.635 46.4309 135.555 46.5816 135.473L46.7009 135.584Z" fill="#B39D81"/>
<path d="M161.781 181.35C161.822 181.475 161.861 181.601 161.903 181.726C161.795 181.669 161.687 181.612 161.58 181.556C161.646 181.487 161.715 181.419 161.783 181.35H161.781Z" fill="#B39D81"/>
<path d="M46.5816 135.473C46.6736 135.436 46.7656 135.397 46.8575 135.359C46.8047 135.434 46.7538 135.51 46.701 135.584L46.5816 135.473Z" fill="#B39D81"/>
<path d="M154.651 112.411C154.61 112.472 154.568 112.531 154.527 112.592C154.531 112.559 154.525 112.509 154.543 112.496C154.58 112.468 154.633 112.46 154.678 112.445L154.649 112.413L154.651 112.411Z" fill="#B39D81"/>
<path d="M97.0965 61.6516C97.1474 61.7984 97.1963 61.9471 97.2472 62.0939C97.1063 62.043 96.9674 61.9902 96.8265 61.9393C96.9165 61.8434 97.0065 61.7475 97.0965 61.6516Z" fill="#B39D81"/>
<path d="M154.682 117.566C154.633 117.543 154.576 117.529 154.537 117.494C154.517 117.478 154.529 117.425 154.527 117.387C154.568 117.454 154.612 117.523 154.653 117.592L154.684 117.566H154.682Z" fill="#B39D81"/>
<path d="M136.034 46.4153C135.884 46.5093 135.735 46.6032 135.584 46.6971C135.584 46.6971 135.459 46.5954 135.457 46.5934C135.543 46.4388 135.633 46.2862 135.719 46.1335C135.823 46.2275 135.929 46.3214 136.034 46.4173V46.4153Z" fill="#B39D81"/>
<path d="M140.101 158.22C140.124 158.32 140.148 158.417 140.171 158.517C140.087 158.48 140.003 158.441 139.919 158.404C139.978 158.343 140.038 158.28 140.101 158.222V158.22Z" fill="#E9CBAE"/>
<path d="M71.7901 140.115C71.6649 140.119 71.5397 140.121 71.4144 140.124C71.4634 140.046 71.5142 139.966 71.5632 139.886C71.6395 139.96 71.7158 140.036 71.7901 140.115Z" fill="#E9CBAE"/>
<path d="M139.891 71.5689C139.97 71.518 140.046 71.4652 140.124 71.4143C140.12 71.5395 140.117 71.6628 140.115 71.79C140.04 71.7176 139.966 71.6452 139.891 71.5709V71.5689Z" fill="#E9CBAE"/>
<path d="M158.413 139.911C158.449 139.999 158.484 140.085 158.517 140.173C158.415 140.154 158.314 140.134 158.212 140.115C158.276 140.046 158.345 139.98 158.413 139.911Z" fill="#E9CBAE"/>
<path d="M158.472 89.9428L158.425 89.8188L158.549 89.8346L158.472 89.9428Z" fill="#E9CBAE"/>
<path d="M71.6023 90.0751C71.5416 90.0047 71.481 89.9342 71.4203 89.8638C71.5475 89.8657 71.6747 89.8696 71.8019 89.8716C71.7373 89.9401 71.6708 90.0105 71.6023 90.0771V90.0751Z" fill="#E9CBAE"/>
<path d="M89.8642 158.4L89.9055 158.524L89.7993 158.514L89.8642 158.4Z" fill="#E9CBAE"/>
<path d="M89.8678 71.8037C89.8678 71.6746 89.8639 71.5474 89.8619 71.4182C89.9324 71.4789 90.0048 71.5395 90.0752 71.6002C90.0087 71.6707 89.9383 71.7372 89.8678 71.8037Z" fill="#E9CBAE"/>
<path d="M115.114 116.585C114.002 116.601 113.39 116.061 113.333 115.074C113.27 113.984 113.912 113.327 114.99 113.329C115.973 113.329 116.579 113.908 116.581 114.943C116.581 115.955 116.065 116.524 115.114 116.585Z" fill="#B39D81"/>
</g>
</svg>
