<svg width="39" height="27" viewBox="0 0 39 27" fill="none" xmlns="http://www.w3.org/2000/svg">
<path d="M27.1378 3.88186H33.8548C34.1061 3.88022 34.352 3.95467 34.5603 4.09543C34.7685 4.23618 34.9293 4.43665 35.0216 4.67051L37.229 10.191" stroke="#9C4A2F" stroke-width="2" stroke-linecap="round" stroke-linejoin="round"/>
<path d="M1.90973 13.9756H27.1378" stroke="#9C4A2F" stroke-width="2" stroke-linecap="round" stroke-linejoin="round"/>
<path d="M29.0299 25.3313C31.1198 25.3313 32.8141 23.6364 32.8141 21.5458C32.8141 19.4551 31.1198 17.7603 29.0299 17.7603C26.9399 17.7603 25.2457 19.4551 25.2457 21.5458C25.2457 23.6364 26.9399 25.3313 29.0299 25.3313Z" stroke="#9C4A2F" stroke-width="2" stroke-miterlimit="10"/>
<path d="M10.1088 25.3313C12.1988 25.3313 13.893 23.6364 13.893 21.5458C13.893 19.4551 12.1988 17.7603 10.1088 17.7603C8.01883 17.7603 6.32458 19.4551 6.32458 21.5458C6.32458 23.6364 8.01883 25.3313 10.1088 25.3313Z" stroke="#9C4A2F" stroke-width="2" stroke-miterlimit="10"/>
<path d="M25.2457 21.5454H13.8931" stroke="#9C4A2F" stroke-width="2" stroke-linecap="round" stroke-linejoin="round"/>
<path d="M6.32464 21.5454H3.17113C2.83659 21.5454 2.51574 21.4125 2.27919 21.1759C2.04263 20.9393 1.90973 20.6184 1.90973 20.2837V2.62009C1.90973 2.28547 2.04263 1.96455 2.27919 1.72794C2.51574 1.49133 2.83659 1.3584 3.17113 1.3584H27.1378V18.265" stroke="#9C4A2F" stroke-width="2" stroke-linecap="round" stroke-linejoin="round"/>
<path d="M27.1378 10.1902H37.229V20.2837C37.229 20.6183 37.0961 20.9392 36.8596 21.1759C36.623 21.4125 36.3022 21.5454 35.9676 21.5454H32.8141" stroke="#9C4A2F" stroke-width="2" stroke-linecap="round" stroke-linejoin="round"/>
</svg>
